<svg viewBox="0 0 820.46 250.1" xmlns="http://www.w3.org/2000/svg"><defs><style>.cls-1{fill:#202020;}.cls-2{fill:#6636e9;}</style></defs><g data-name="Capa 2" id="Capa_2"><g data-name="Capa 2" id="Capa_2-2"><path d="M592.36,67.7h-37.9a2.32,2.32,0,0,1-2.32-2.32V2.25A2.25,2.25,0,0,0,549.89,0H464.82A4.72,4.72,0,0,0,461,7.52c8.63,11.92,15.17,24.83,16.86,40.05V65.38a2.32,2.32,0,0,1-2.33,2.32H456.73a3.31,3.31,0,0,0-3.3,3.31V99.33a3.31,3.31,0,0,0,3.3,3.31h20A2.32,2.32,0,0,1,479,105l0,61.13c0,10.43.69,22.58,2.89,32.78,1.37,6.31,3.31,10.62,5.43,16.13,8,20.65,30.81,27.44,45.69,27.44,37.26,0,55.94-11.43,61.13-15.25a3.78,3.78,0,0,0,1.54-3.07V194.64a1.93,1.93,0,0,0-3-1.61c-3.32,2.19-9.61,5-19.86,5-8.35,0-13.32-5-16.21-9.95a28.68,28.68,0,0,1-3.69-14.42L552.16,105a2.32,2.32,0,0,1,2.33-2.35h37.87a3.31,3.31,0,0,0,3.31-3.31V71A3.31,3.31,0,0,0,592.36,67.7Z" class="cls-1"></path><path d="M741.78,129.45c-12.35-2.85-51.23-16-51.23-16s-18.84-8.83-10.06-17.61c5.94-5.94,26.67-3.76,39.11,6,8.6,6.71,14.21,16.17,16.16,19.79a2.81,2.81,0,0,0,2.48,1.48h67.93a3.31,3.31,0,0,0,3.31-3.32V81.88s-38.19-22.41-95.83-22.41S612.1,73.19,612.1,111.16c0,41.4,55.12,57,55.12,57s68,23,77.31,28.59c0,0,4.69,2.63,3.77,7.43s-4,12-21,12c-27.71,0-41-29-43.94-36.54a2.81,2.81,0,0,0-2.62-1.77H612.1a3.32,3.32,0,0,0-3.32,3.32V225s38.77,25.15,105.33,25.15,106.35-25.5,106.35-58.43C820.46,147.24,754.13,132.31,741.78,129.45Z" class="cls-1"></path><path d="M388.6,63a182.18,182.18,0,0,0-36.14-3.49c-69.84,0-112,37.77-112,94.88S287,250.1,351.57,250.1c71.94,0,90.35-32.36,95-47.79a3.74,3.74,0,0,0-5.18-4.47c-10.57,5-32.54,13.62-58.66,13.62-27.25,0-53.56-15.1-65.44-38.23H448.55a4.94,4.94,0,0,0,4.94-4.94l0-20.23c0-.17,0-.34,0-.52V142.8c0-.84,0-1.67,0-2.5A81.36,81.36,0,0,0,388.6,63ZM310.9,140.3c1.87-33.59,20.57-47,38.48-47,30.38,0,39.54,28.83,42.3,47Z" class="cls-1"></path><path d="M152.71,59.47c-31.53,0-54.66,18.67-60.59,24V76.6h0L92,2.25A2.25,2.25,0,0,0,89.78,0H4.72A4.72,4.72,0,0,0,.92,7.52C9.54,19.44,16.08,32.35,17.77,47.57v147.3C16.08,210.09,9.54,223,.92,234.93a4.72,4.72,0,0,0,3.8,7.51H89.78A2.25,2.25,0,0,0,92,240.19V224.71c9.4,12.6,25.29,25.39,51.05,25.39,50.72,0,83.95-41.75,83.95-100.56S189.43,59.47,152.71,59.47ZM117.94,205.72a61.55,61.55,0,0,1-25.89-6.09l0-33.79h.14l-.06-56.64c7.37-3.4,17.09-6.82,26.34-6.82,18.36,0,38.15,11.52,38.15,48.25S145.49,205.72,117.94,205.72Z" class="cls-1"></path><path d="M611.44,46V19.36h11c5.42,0,9,2.73,9,7.3a5.64,5.64,0,0,1-3,5.06,6.78,6.78,0,0,1,4.19,6.44c0,5.14-4.05,7.83-9.06,7.83Zm6.82-16.36h3.6a2.43,2.43,0,0,0,2.69-2.33A2.25,2.25,0,0,0,622,25.16h-3.77Zm0,10.68H623a2.67,2.67,0,0,0,2.77-2.85,2.82,2.82,0,0,0-3-2.73h-4.45Z" class="cls-2"></path><path d="M675.86,46h-7.69l-4-8.51c-.29,0-.55,0-.82,0h-2.75V46H653.8V19.36h11.5c5.56,0,9.37,3.72,9.37,9.06a8,8,0,0,1-4,7.3ZM660.62,25.52v6h4.06a3,3,0,0,0,3.07-3.09,2.83,2.83,0,0,0-3-2.92Z" class="cls-2"></path><path d="M713.41,46,712,41.82h-9.56L701,46h-7l10.27-26.67h6L720.44,46Zm-9-9.85h5.7l-2.54-7.47-.3-1.22h0l-.28,1.22Z" class="cls-2"></path><path d="M740.72,46V19.36h6.82l9.79,15v-15H764V46h-6.18L747.35,30.11V46Z" class="cls-2"></path><path d="M786.7,46V19.36h10c7.81,0,14,5.71,14,13.31S804.58,46,796.79,46Zm6.83-6.46H797a6.59,6.59,0,0,0,6.83-6.86A6.62,6.62,0,0,0,797,25.82h-3.47Z" class="cls-2"></path></g></g></svg>